<?xml version="1.0" encoding="UTF-8" standalone="no"?>
<!DOCTYPE svg PUBLIC "-//W3C//DTD SVG 1.1//EN" "http://www.w3.org/Graphics/SVG/1.1/DTD/svg11.dtd">
<svg width="100%" height="100%" viewBox="0 0 2500 750" version="1.1" xmlns="http://www.w3.org/2000/svg" xmlns:xlink="http://www.w3.org/1999/xlink" xml:space="preserve" xmlns:serif="http://www.serif.com/" style="fill-rule:evenodd;clip-rule:evenodd;stroke-linejoin:round;stroke-miterlimit:2;">
    <g id="レイヤー_2_1_" transform="matrix(8.333333,0,0,8.333333,0,0)">
        <g id="レイヤー_1-2">
            <g transform="matrix(0.088055,0,0,0.088055,150,46.56)">
                <g transform="matrix(1,0,0,1,-683.678196,-312.5)">
                    <g>
                        <clipPath id="_clip1">
                            <rect x="0" y="0" width="1367.356" height="625"/>
                        </clipPath>
                        <g clip-path="url(#_clip1)">
                            <g id="design" transform="matrix(8.333333,0,0,8.333333,0,0)">
                                <g>
                                    <g>
                                        <g>
                                            <path d="M53.487,67.325C53.487,63.369 53.321,60.743 53.321,60.743C53.321,60.743 54.133,60.803 55.051,60.803C56.957,60.803 60.56,60.203 61.637,62.366C61.85,62.794 61.928,63.277 61.928,63.752C61.928,65.561 60.785,66.595 59.16,67.195C61.417,67.547 62.42,68.898 62.405,70.669C62.384,73.076 60.293,74.746 57.207,74.746C56.639,74.746 56.057,74.721 55.484,74.709C54.223,74.683 53.309,74.756 53.309,74.756C53.309,74.756 53.487,71.145 53.487,67.325ZM56.23,66.864C58.004,66.864 60.023,66.14 60.023,64.103C60.023,62.104 58.198,61.771 56.764,61.771C56.122,61.771 55.401,61.818 55.401,61.818C55.375,63.475 55.342,65.188 55.353,66.845L56.23,66.864ZM55.375,69.758C55.404,71.862 55.452,73.699 55.452,73.699C55.452,73.699 56.181,73.728 57.153,73.728C58.708,73.728 60.387,72.566 60.387,70.529C60.387,68.387 58.604,67.873 56.095,67.873L55.362,67.883C55.362,68.508 55.366,69.133 55.375,69.758Z" style="fill:rgb(99,140,179);fill-rule:nonzero;"/>
                                            <path d="M105.212,73.271C105.214,73.241 105.217,73.179 105.22,73.149C105.185,73.154 105.127,73.164 105.097,73.169C103.803,73.403 101.542,73.509 99.564,73.512C99.525,72.631 99.487,70.316 99.487,68.586L99.487,67.951C101.893,67.952 103.907,67.997 104.612,68.111C104.643,68.116 104.738,68.13 104.738,68.13C104.733,68.091 104.728,68.036 104.725,68.006C104.705,67.808 104.705,67.548 104.705,67.369C104.705,67.191 104.705,66.95 104.725,66.732C104.727,66.702 104.73,66.638 104.734,66.607C104.734,66.607 104.644,66.623 104.615,66.627C103.64,66.758 101.386,66.826 99.487,66.828L99.487,66.315C99.487,64.683 99.526,62.86 99.564,61.921C101.579,61.924 104.187,62.034 104.993,62.203C105.024,62.209 105.106,62.224 105.106,62.224C105.094,62.127 105.084,61.741 105.09,61.476C105.096,61.231 105.118,60.718 105.118,60.718L105.01,60.721C103.692,60.761 100.84,60.782 99.491,60.782C98.881,60.782 97.377,60.753 97.377,60.753C97.475,62.326 97.548,64.64 97.548,66.538L97.548,68.566C97.548,70.193 97.497,72.738 97.401,74.43C97.396,74.517 97.38,74.749 97.373,74.796C97.412,74.792 97.461,74.789 97.487,74.788C97.974,74.767 99.091,74.728 99.592,74.728C100.935,74.728 103.108,74.753 104.214,74.773L105.113,74.788L105.115,74.788C105.141,74.788 105.183,74.789 105.221,74.79C105.217,74.758 105.213,74.712 105.212,74.685C105.192,74.384 105.192,74.127 105.192,74.007C105.192,73.887 105.192,73.593 105.212,73.271Z" style="fill:rgb(99,140,179);fill-rule:nonzero;"/>
                                            <path d="M75.879,73.17L75.664,73.198C73.735,73.448 72.149,73.455 70.339,73.455L70.323,72.192C70.304,70.582 70.28,68.579 70.28,66.041C70.28,64.319 70.36,62.583 70.437,60.903L70.447,60.726C69.673,60.764 69.674,60.769 69.282,60.765C68.919,60.76 68.919,60.757 68.202,60.726L68.212,60.903C68.289,62.583 68.369,64.319 68.369,66.041L68.369,69.456C68.369,71.183 68.289,72.917 68.212,74.594L68.204,74.75L68.359,74.742C69.739,74.674 70.903,74.643 72.025,74.643C73.141,74.643 74.334,74.675 75.673,74.742L75.873,74.752C75.857,74.451 75.84,74.263 75.84,74.005C75.84,73.767 75.855,73.516 75.879,73.17Z" style="fill:rgb(99,140,179);fill-rule:nonzero;"/>
                                        </g>
                                        <path d="M86.3,73.784C86.429,73.784 86.751,73.778 86.871,73.767C89.522,73.508 90.368,70.986 90.352,68.224C90.334,65.307 90.32,62.139 90.228,60.911L90.209,60.715L90.203,60.715C90.785,60.759 90.799,60.762 91.092,60.762C91.43,60.762 91.43,60.759 91.943,60.725L91.916,61.487C91.875,62.631 91.794,65.889 91.719,68.847C91.612,72.988 89.725,74.966 86.222,75C82.716,75 80.642,73.638 80.413,69.693C80.362,68.823 80.35,67.022 80.35,66.555C80.35,64.713 80.332,62.631 80.291,61.487L80.264,60.725C80.94,60.756 80.94,60.762 81.368,60.762C81.817,60.762 81.831,60.751 82.509,60.715L82.49,60.911C82.398,62.139 82.327,65.097 82.366,68.024C82.374,68.598 82.426,69.24 82.453,69.725C82.571,71.883 83.426,73.584 85.711,73.761C85.847,73.772 86.153,73.784 86.3,73.784Z" style="fill:rgb(99,140,179);fill-rule:nonzero;"/>
                                    </g>
                                    <path d="M40.862,43.628C38.415,43.628 36.424,41.585 36.424,39.074L36.424,19.205L32.235,19.205L32.235,18.604L42.453,18.604L42.453,22.983C42.453,25.002 43.445,22.96 43.445,22.96L43.601,22.668C44.676,20.658 45.911,19.373 47.074,18.802C48.267,18.218 49.333,17.921 50.243,17.921C51.686,17.921 52.804,18.293 53.565,19.08C54.319,19.86 54.701,21.023 54.701,22.535C54.701,24.009 54.381,25.085 53.748,25.731C53.108,26.385 52.095,26.711 51.138,26.711C50.257,26.711 49.673,26.434 48.959,25.865C48.281,25.326 47.8,24.571 47.8,23.449C47.8,22.602 48.118,22.255 48.326,21.955C48.629,21.517 48.739,21.123 48.739,20.817C48.739,20.604 48.663,20.408 48.52,20.249C48.27,19.981 47.895,19.981 47.773,19.981C47.054,19.981 46.173,20.564 45.316,21.486C44.534,22.325 43.855,23.86 43.298,25.206C42.738,26.555 42.453,27.613 42.453,29.197L42.453,40.658C42.453,41.579 43.197,42.328 44.111,42.328C44.305,42.328 44.496,42.294 44.68,42.225C45.053,42.085 45.433,41.918 45.813,41.722L45.813,42.178C44.513,42.957 42.993,43.438 41.293,43.606C41.148,43.62 41.005,43.628 40.862,43.628Z" style="fill:rgb(99,140,179);fill-rule:nonzero;"/>
                                    <path d="M71.699,43.599C69.998,43.599 68.383,43.235 66.899,42.517C65.399,41.793 64.064,40.801 62.929,39.569C61.788,38.334 60.893,36.918 60.269,35.358C59.643,33.802 59.326,32.15 59.326,30.446C59.326,28.346 59.827,26.297 60.816,24.356C61.804,22.419 63.223,20.804 65.033,19.555C66.825,18.318 68.964,17.691 71.389,17.691C73.353,17.691 75.132,18.127 76.679,18.986C78.215,19.841 79.449,21.08 80.343,22.671C81.239,24.265 81.692,26.193 81.692,28.399L81.692,28.472L66.266,28.472L66.253,29.012C66.241,29.577 66.234,30.168 66.234,30.787C66.234,33.875 66.395,36.291 66.71,37.97C67.049,39.772 67.638,40.986 68.511,41.683C69.364,42.366 70.524,42.713 71.958,42.713C73.886,42.713 75.667,42.186 77.25,41.144C78.763,40.148 80.044,38.457 81.061,36.116L81.655,36.116C80.932,38.286 79.737,40.059 78.097,41.39C76.296,42.856 74.143,43.599 71.699,43.599ZM71.233,18.405C70.009,18.405 69.002,18.83 68.24,19.667C67.505,20.476 66.995,21.767 66.683,23.615C66.511,24.625 66.388,25.861 66.314,27.291L66.312,27.586L75.508,27.586L75.508,23.849C75.508,19.35 73.183,18.405 71.233,18.405ZM66.987,14.241L75.227,4.022C76.116,2.683 77.754,0.607 78.151,0.395C78.671,0.132 79.188,-0 79.685,-0C80.513,-0 81.112,0.204 81.467,0.608C81.844,1.039 82.027,1.515 82.027,2.064C82.027,2.461 81.885,2.927 81.603,3.451C81.314,3.985 80.696,4.614 79.764,5.32L67.723,14.309L66.987,14.241Z" style="fill:rgb(99,140,179);fill-rule:nonzero;"/>
                                    <g id="ILuIqm">
                                        <path d="M0.001,43.483C0.001,35.256 0.002,23.303 0,15.076C-0.001,12.607 0.029,9.771 1.207,7.59C2.802,4.635 4.714,3.093 7.849,1.923C9.751,1.213 11.73,0.963 13.753,1.003C15.103,1.03 16.442,1.15 17.758,1.468C20.406,2.107 22.653,3.419 24.467,5.462C26.14,7.346 27.035,9.581 27.433,12.041C27.728,13.868 27.818,15.711 27.713,17.551C27.504,21.212 26.061,24.315 23.309,26.773C21.45,28.433 19.276,29.467 16.834,29.929C15.122,30.253 13.404,30.338 11.707,29.838C9.57,29.208 7.955,27.885 6.763,26.024C6.543,25.681 6.351,25.318 6.118,24.914L6.118,42.849L11.262,42.849L11.262,43.483L0.001,43.483ZM20.062,14.719C20.011,13.084 19.983,10.978 19.865,8.877C19.787,7.51 19.454,6.18 18.845,4.939C18.11,3.442 17.002,2.369 15.353,1.939C14.238,1.649 13.107,1.645 11.976,1.824C10.212,2.102 8.788,2.957 7.736,4.406C6.594,5.98 6.115,7.777 6.103,9.69C6.078,13.729 6.1,17.769 6.099,21.809C6.098,22.447 6.185,23.07 6.377,23.678C7.39,26.877 10.763,29.634 14.718,29.257C15.54,29.179 16.303,28.915 16.983,28.432C17.945,27.747 18.528,26.788 18.939,25.709C19.613,23.943 19.834,22.09 19.921,20.222C19.999,18.547 20.01,16.868 20.062,14.719Z" style="fill:rgb(99,140,179);fill-rule:nonzero;"/>
                                    </g>
                                    <g>
                                        <path d="M125.797,10.82C126.781,10.82 127.611,10.433 128.335,9.636C129.073,8.825 129.432,7.905 129.432,6.824C129.432,5.704 129.073,4.765 128.335,3.954C127.611,3.157 126.781,2.77 125.797,2.77C124.848,2.77 124.034,3.157 123.31,3.954C122.572,4.765 122.213,5.704 122.213,6.824C122.213,7.905 122.572,8.825 123.31,9.636C124.034,10.433 124.848,10.82 125.797,10.82Z" style="fill:rgb(99,140,179);fill-rule:nonzero;"/>
                                        <path d="M131.454,42.222C131.27,42.29 131.079,42.325 130.885,42.325C129.971,42.325 129.228,41.576 129.228,40.655L129.225,40.654L129.225,18.638L119.007,18.638L119.007,19.239L123.196,19.239L123.194,39.161C123.242,41.631 125.22,43.625 127.637,43.625C127.779,43.625 127.923,43.617 128.067,43.603C129.768,43.434 131.288,42.954 132.588,42.174L132.588,41.719C132.207,41.915 131.828,42.082 131.454,42.222Z" style="fill:rgb(99,140,179);fill-rule:nonzero;"/>
                                    </g>
                                    <path d="M113.498,42.222C113.314,42.29 113.123,42.325 112.929,42.325C112.023,42.325 111.287,41.589 111.274,40.679L111.274,1.246L100.107,1.246L100.107,1.897L100.198,1.898L105.156,1.898C105.148,6.034 105.151,16.857 105.15,20.994C105.15,21.103 104.947,21.156 104.895,21.069C104.083,19.728 102.807,18.705 101.301,18.272C99.388,17.721 97.478,17.834 95.608,18.4C92.206,19.43 89.934,21.618 88.95,25.075C88.339,27.223 88.219,29.418 88.312,31.632C88.4,33.745 88.792,35.798 89.693,37.726C91.038,40.607 93.191,42.538 96.352,43.212C98.892,43.753 101.734,43.79 103.396,42.598C104.189,42.03 104.738,41.297 105.21,40.449C105.269,40.343 105.421,40.361 105.458,40.477C106.038,42.301 107.712,43.625 109.68,43.625C109.823,43.625 109.966,43.617 110.111,43.603C111.811,43.434 113.331,42.954 114.631,42.174L114.631,41.719C114.251,41.915 113.871,42.082 113.498,42.222ZM105.096,35.756C105.069,37.368 104.518,39.105 103.701,40.53C102.44,42.73 99.937,43.392 97.688,42.274C96.818,41.841 96.233,41.142 95.83,40.275C95.148,38.805 95.026,37.233 95.005,35.648L94.937,30.982C94.999,28.766 95.027,26.548 95.138,24.334C95.183,23.439 95.341,22.534 95.567,21.665C96.172,19.329 97.513,18.459 99.9,18.765C102.641,19.117 104.652,21.062 105.089,23.791C105.129,24.04 105.148,24.295 105.147,24.547C105.138,28.283 105.158,32.021 105.096,35.756Z" style="fill:rgb(99,140,179);fill-rule:nonzero;"/>
                                    <path d="M162.916,42.245C162.728,42.314 162.531,42.348 162.331,42.348C161.395,42.348 160.71,41.606 160.704,40.691C160.702,37.523 160.703,34.355 160.701,31.187C160.701,30.886 160.692,30.584 160.685,30.283C160.651,28.854 160.485,27.443 160.103,26.061C159.59,24.2 158.754,22.511 157.432,21.085C156.194,19.748 154.697,18.814 152.955,18.286C150.803,17.633 148.618,17.566 146.422,18.02C143.717,18.579 141.567,20.003 139.991,22.272C138.551,24.345 137.846,26.68 137.602,29.17C137.489,30.315 137.532,31.459 137.638,32.602C137.792,34.278 138.174,35.9 138.878,37.436C139.915,39.7 141.491,41.461 143.75,42.56C145.477,43.4 147.317,43.701 149.225,43.625C150.072,43.59 150.883,43.399 151.649,43.031C152.513,42.615 153.195,42.015 153.757,41.294C153.984,41.017 154.196,40.727 154.375,40.404C154.434,40.298 154.586,40.316 154.622,40.432C154.639,40.483 154.662,40.53 154.68,40.581C154.716,40.684 154.754,40.786 154.797,40.886C154.815,40.926 154.833,40.965 154.852,41.004C154.915,41.139 154.983,41.27 155.058,41.397C155.06,41.4 155.062,41.404 155.064,41.408C155.86,42.746 157.319,43.648 158.989,43.648C159.136,43.648 159.283,43.641 159.432,43.626C161.182,43.458 162.745,42.978 164.083,42.198L164.083,41.742C163.691,41.938 163.301,42.106 162.916,42.245ZM151.038,42.374C150.282,42.739 149.482,42.846 148.654,42.799C148.082,42.766 147.522,42.67 146.989,42.449C146.018,42.046 145.384,41.314 144.968,40.37C144.595,39.525 144.407,38.632 144.281,37.723C144.057,36.106 144.033,34.478 144.029,32.849C144.022,30.399 144.016,27.948 144.026,25.497C144.031,24.274 144.111,23.279 144.447,22.092C144.65,21.373 145.108,20.702 145.601,20.131C146.218,19.417 147.013,19.014 147.925,18.834C148.949,18.632 149.822,18.639 150.831,18.916C152.245,19.304 153.146,20.257 153.687,21.586C154.102,22.607 154.286,23.457 154.372,24.547C154.433,25.323 154.469,26.102 154.479,26.879C154.495,28.266 154.483,29.653 154.483,31.04L154.507,31.04C154.507,32.844 154.476,34.648 154.517,36.451C154.547,37.81 154.158,39.022 153.446,40.151C152.843,41.106 152.066,41.876 151.038,42.374Z" style="fill:rgb(99,140,179);fill-rule:nonzero;"/>
                                </g>
                            </g>
                        </g>
                    </g>
                </g>
            </g>
        </g>
    </g>
</svg>
