<?xml version="1.0" encoding="UTF-8" standalone="no"?>
<!DOCTYPE svg PUBLIC "-//W3C//DTD SVG 1.1//EN" "http://www.w3.org/Graphics/SVG/1.1/DTD/svg11.dtd">
<svg width="100%" height="100%" viewBox="0 0 2500 750" version="1.1" xmlns="http://www.w3.org/2000/svg" xmlns:xlink="http://www.w3.org/1999/xlink" xml:space="preserve" xmlns:serif="http://www.serif.com/" style="fill-rule:evenodd;clip-rule:evenodd;stroke-linejoin:round;stroke-miterlimit:2;">
    <g transform="matrix(1.622642,0,0,1.622642,-383.377821,-233.490786)">
        <g transform="matrix(1,0,0,1,710.24675,361.27185)">
            <path d="M0,-19.6C-1.627,-19.6 -2.753,-18.599 -5.005,-16.472L-42.576,-16.472L-42.576,-24.969C-42.576,-25.465 -42.596,-27.908 -42.577,-28.58L-13.914,-28.58C-13.02,-28.58 -11.017,-28.572 -9.549,-28.58C-8.588,-28.585 -8.288,-29.523 -8.531,-30.098C-9.851,-33.217 -13.58,-37.359 -15.228,-37.332C-16.331,-37.314 -18.138,-34.847 -19.823,-33.1L-76.179,-33.1C-76.594,-33.1 -78.388,-33.626 -79.197,-33.846C-79.387,-33.898 -79.689,-33.858 -79.845,-33.726C-81.245,-32.547 -82.287,-30.457 -82.719,-29.661C-82.943,-29.246 -83.065,-28.58 -81.948,-28.58L-50.26,-28.58C-50.257,-28.481 -50.209,-26.683 -50.209,-25.345L-50.084,-16.472L-87.828,-16.472C-88.661,-17.897 -90.095,-19.726 -91.339,-20.496C-91.806,-20.785 -92.289,-20.89 -92.537,-20.829C-92.857,-20.75 -92.977,-20.389 -92.977,-19.509C-92.977,-15.217 -92.977,-15.217 -94.737,-10.155L-96.278,-5.753L-96.278,-5.203C-95.068,-0.472 -93.527,2.499 -92.207,2.499C-90.116,2.499 -88.216,-3.451 -87.915,-9.055C-87.871,-9.874 -87.75,-11.327 -87.764,-12.843L-50.084,-12.843L-50.084,-6.211C-50.084,-3.333 -50.644,11.469 -50.71,14.506C-50.737,15.757 -50.585,17.759 -48.207,17.759C-47.331,17.759 -42.451,16.758 -42.451,11.127C-42.451,9 -42.701,-2.207 -42.701,-4.585L-42.701,-12.843L-3.879,-12.843C-3.879,-6.336 -4.906,-0.752 -5.916,1.782C-6.354,2.879 -7.162,3.996 -6.289,4.488C-5.79,4.771 -4.876,4.345 -4.035,3.809C1.256,0.441 6.006,-9.818 6.006,-13.969C6.006,-17.598 3.378,-19.6 0,-19.6" style="fill:rgb(89,87,87);fill-rule:nonzero;"/>
        </g>
        <g transform="matrix(0.985059,0.172217,0.172217,-0.985059,642.067646,362.149931)">
            <path d="M0.556,0.28C4.728,0.26 7.971,1.445 8.024,3.498C8.078,5.551 4.563,8.52 0.556,7.41C-3.515,6.282 -10.384,5.489 -10.682,4.781C-11.177,3.609 -5.818,0.31 0.556,0.28" style="fill:rgb(89,87,87);fill-rule:nonzero;"/>
        </g>
        <g transform="matrix(0.985059,0.172217,0.172217,-0.985059,642.067646,374.987731)">
            <path d="M0.556,0.28C4.728,0.26 7.971,1.445 8.024,3.498C8.078,5.551 4.563,8.52 0.556,7.41C-3.515,6.282 -10.384,5.489 -10.682,4.781C-11.177,3.609 -5.818,0.31 0.556,0.28" style="fill:rgb(89,87,87);fill-rule:nonzero;"/>
        </g>
        <g transform="matrix(0.985059,0.172217,0.172217,-0.985059,685.732546,362.149931)">
            <path d="M0.556,0.28C4.728,0.26 7.972,1.445 8.024,3.498C8.078,5.551 4.563,8.52 0.556,7.41C-3.515,6.282 -10.384,5.489 -10.682,4.781C-11.177,3.609 -5.818,0.31 0.556,0.28" style="fill:rgb(89,87,87);fill-rule:nonzero;"/>
        </g>
        <g transform="matrix(0.985059,0.172217,0.172217,-0.985059,685.732546,374.987731)">
            <path d="M0.556,0.28C4.728,0.26 7.972,1.445 8.024,3.498C8.078,5.551 4.563,8.52 0.556,7.41C-3.515,6.282 -10.384,5.489 -10.682,4.781C-11.177,3.609 -5.818,0.31 0.556,0.28" style="fill:rgb(89,87,87);fill-rule:nonzero;"/>
        </g>
        <g transform="matrix(1,0,0,1,699.56195,424.27395)">
            <path d="M0,-37.896C-0.757,-39.153 -3.614,-41.059 -5.194,-41.334C-6.851,-41.622 -10.278,-38.409 -10.278,-38.409L-65.488,-38.409C-65.883,-38.409 -67.593,-38.911 -68.364,-39.12C-68.545,-39.169 -68.832,-39.131 -68.981,-39.006C-70.315,-37.882 -71.308,-36.445 -71.719,-35.686C-71.933,-35.291 -72.05,-34.656 -70.985,-34.656L-10.884,-34.656L-10.886,-34.643C-9.051,-34.643 -9.01,-32.994 -9.009,-22.407L-64.324,-22.407C-64.719,-22.407 -66.429,-22.909 -67.2,-23.118C-67.381,-23.167 -67.669,-23.129 -67.818,-23.003C-69.152,-21.88 -70.145,-20.442 -70.556,-19.683C-70.77,-19.289 -70.887,-18.653 -69.822,-18.653L-9.009,-18.653L-9.009,-5.406L-9.056,-4.874L-65.488,-4.874C-65.883,-4.874 -67.593,-5.375 -68.364,-5.585C-68.545,-5.634 -68.832,-5.596 -68.981,-5.47C-70.315,-4.346 -71.308,-2.909 -71.719,-2.15C-71.933,-1.755 -72.05,-1.12 -70.985,-1.12L-9.384,-1.12L-9.384,1.098C-9.384,2.975 -8.258,3.726 -6.381,3.726C-5.756,3.726 -0.375,3.351 -0.375,-2.03C-0.375,-5.658 -1.001,-21.227 -1.001,-25.231C-1.001,-28.109 -1.209,-31.072 -0.907,-34.256C-0.657,-35.883 0.326,-37.354 0,-37.896" style="fill:rgb(89,87,87);fill-rule:nonzero;"/>
        </g>
        <g transform="matrix(1,0,0,1,906.68565,341.88265)">
            <path d="M0,15.256C0.237,15.253 0.304,15.036 0.233,14.81C-0.087,13.792 -1.378,12.457 -1.924,11.51C-2.798,9.919 -3.368,8.301 -3.555,7.295C-3.663,6.712 -4.532,2.78 -4.745,2.102C-5.422,-0.048 -7.052,-0.039 -9.283,0.769C-12.208,1.829 -12.653,3.323 -11.942,5.585C-9.984,11.808 -3.441,15.304 0,15.256" style="fill:rgb(89,87,87);fill-rule:nonzero;"/>
        </g>
        <g transform="matrix(1,0,0,1,919.28795,339.88885)">
            <path d="M0,15.011C0.985,15.011 8.073,10.305 10.575,6.026C10.833,5.583 11.197,4.881 11.354,4.456C11.626,3.718 11.804,2.798 11.549,2.36C11.116,1.617 9.854,0.891 7.958,0.403C6.691,0.077 5.302,0 4.649,1.199C3.122,3.707 -0.436,13.267 -0.436,14.357C-0.436,14.793 -0.327,15.011 0,15.011" style="fill:rgb(89,87,87);fill-rule:nonzero;"/>
        </g>
        <g transform="matrix(1,0,0,1,930.36155,362.75885)">
            <path d="M0,25.19C-3.914,23.648 -11.268,18.667 -14.352,14.99L-14.47,4.196L-14.47,3.797L-4.961,3.797C-4.154,3.797 -2.344,3.804 -1.018,3.797C-0.15,3.793 0.121,2.945 -0.098,2.425C-1.291,-0.392 -4.659,-3.818 -6.148,-3.794C-7.144,-3.778 -8.777,-1.339 -10.299,0.239L-14.464,0.239C-14.344,-7.519 -14.115,-16.992 -14.115,-24.339C-14.005,-29.162 -13.903,-31.452 -13.684,-33.534C-13.637,-34.046 -13.102,-36.909 -13.093,-37.128C-13.052,-38.102 -13.289,-38.533 -14.557,-38.533C-16.968,-38.533 -22.632,-34.911 -22.646,-33.267C-22.652,-32.577 -20.812,-30.75 -20.703,-30.202C-20.484,-28.777 -20.266,-23.914 -20.266,-22.599C-20.048,-17.457 -20.045,-10.83 -20.045,0.239L-29.675,0.239C-30.049,0.239 -31.67,-0.237 -32.401,-0.436C-32.573,-0.482 -32.845,-0.446 -32.987,-0.327C-34.251,0.738 -35.192,2.101 -35.582,2.82C-35.785,3.195 -35.895,3.797 -34.886,3.797L-20.045,3.797L-20.045,4.196C-20.045,11.194 -21.35,42.596 -21.587,50.305C-21.587,51.847 -22.298,59.335 -22.298,60.758C-22.298,62.182 -21.824,63.723 -20.282,63.723C-18.266,63.723 -13.878,62.182 -13.878,57.081C-13.878,55.302 -14.115,45.917 -14.115,43.9L-14.47,20.445C-12.454,23.055 -6.049,31.12 -3.321,31.12C-1.898,31.12 1.898,28.867 1.898,26.851C1.898,26.02 0.712,25.546 0,25.19" style="fill:rgb(89,87,87);fill-rule:nonzero;"/>
        </g>
        <g transform="matrix(1,0,0,1,998.32305,323.37805)">
            <path d="M0,42.311C-1.192,39.493 -4.56,36.067 -6.049,36.091C-7.045,36.107 -8.678,38.547 -10.2,40.124L-32.688,40.124C-32.707,38.582 -32.693,34.752 -32.663,30.449C-27.2,30.449 -15.709,30.455 -14.383,30.449C-13.515,30.444 -13.244,29.597 -13.463,29.077C-14.655,26.259 -18.024,22.833 -19.512,22.857C-20.509,22.874 -22.142,25.313 -23.663,26.89L-32.634,26.89C-32.596,22.774 -32.546,19.208 -32.497,17.787C-32.497,17.787 -8.35,17.793 -7.024,17.787C-6.155,17.782 -5.884,16.935 -6.104,16.416C-7.296,13.597 -10.665,10.171 -12.153,10.196C-13.15,10.212 -14.782,12.651 -16.304,14.228L-32.379,14.228C-32.259,9.009 -32.256,6.285 -32.019,4.031C-31.967,3.477 -31.389,0.379 -31.379,0.142C-31.335,-0.912 -31.591,-1.378 -32.964,-1.378C-35.573,-1.378 -41.701,2.542 -41.716,4.321C-41.723,5.067 -39.732,7.044 -39.614,7.637C-39.376,9.178 -39.376,12.805 -39.376,14.228L-56.27,14.228C-56.645,14.228 -58.266,13.753 -58.996,13.555C-59.168,13.508 -59.441,13.544 -59.582,13.663C-60.846,14.728 -61.788,16.091 -62.177,16.81C-62.38,17.185 -62.491,17.787 -61.482,17.787L-39.258,17.787C-39.209,18.961 -39.169,22.629 -39.143,26.89L-51.244,26.89C-51.618,26.89 -53.239,26.415 -53.97,26.216C-54.142,26.169 -54.415,26.206 -54.556,26.325C-55.821,27.39 -56.762,28.752 -57.151,29.472C-57.354,29.846 -57.465,30.449 -56.455,30.449L-39.125,30.449C-39.107,34.858 -39.107,38.775 -39.13,40.124L-59.832,40.124C-60.206,40.124 -61.827,39.649 -62.558,39.45C-62.729,39.403 -63.002,39.44 -63.144,39.558C-64.408,40.623 -65.349,41.986 -65.739,42.706C-65.941,43.08 -66.052,43.682 -65.043,43.682L-4.862,43.682C-4.055,43.682 -2.245,43.689 -0.92,43.682C-0.051,43.678 0.22,42.83 0,42.311" style="fill:rgb(89,87,87);fill-rule:nonzero;"/>
        </g>
        <g transform="matrix(1,0,0,1,908.40825,405.77535)">
            <path d="M0,-32.332C-0.505,-33.118 -2.332,-33.246 -3.667,-33.246C-4.69,-33.246 -5.396,-32.946 -5.904,-32.452C-6.75,-31.628 -7.047,-30.266 -7.344,-28.857C-8.055,-25.536 -10.546,-16.759 -18.73,-4.779C-19.916,-3.001 -22.051,0.084 -22.051,0.202C-22.051,0.914 -21.458,0.914 -21.221,0.914C-17.621,0.914 -5.215,-15.465 -1.409,-25.012C-0.701,-26.79 -0.225,-28.228 0.039,-29.443C0.301,-30.651 0.357,-31.776 0,-32.332" style="fill:rgb(89,87,87);fill-rule:nonzero;"/>
        </g>
        <g transform="matrix(1,0,0,1,948.61655,396.66795)">
            <path d="M0,3.456C0.006,0.593 0.005,-2.444 0.005,-5.677L29.106,-5.677L29.225,3.456L0,3.456ZM0.14,-17.419L27.92,-17.419C28.514,-17.419 28.951,-16.945 28.951,-16.352C29.07,-12.675 29.106,-10.516 29.106,-9.117L0.005,-9.117C0.125,-11.816 0.132,-14.527 0.14,-17.419M36.817,-20.391C36.13,-21.533 33.535,-23.264 32.1,-23.514C30.596,-23.776 27.482,-20.858 27.482,-20.858L0.118,-20.86C0.118,-20.86 -0.098,-21.846 -1.771,-23.489C-4.087,-25.762 -7.538,-26.121 -7.362,-24.035C-7.293,-23.226 -6.48,-21.119 -6.375,-17.911C-6.348,-17.112 -6.285,-15.276 -6.285,-11.786C-6.285,-11.085 -6.272,-7.588 -6.276,-6.105C-6.337,-0.89 -6.556,8.295 -6.775,12.141C-6.894,14.395 -7.961,25.663 -7.961,26.849C-7.961,28.391 -6.894,29.34 -5.352,29.34C-0.608,29.34 -0.252,24.952 -0.015,23.528C-0.015,22.817 -0.133,11.996 -0.133,7.014L29.225,7.014L29.225,9.108C29.225,21.562 29.225,23.41 22.464,23.41C21.634,23.41 17.364,22.698 16.415,22.698C16.297,22.698 15.703,22.698 15.703,22.935C15.703,23.765 22.109,29.577 28.039,29.577C36.579,29.577 36.788,22.697 36.697,17.479C36.602,11.969 35.867,-11.133 35.867,-14.217L35.864,-14.218C35.875,-15.169 35.902,-16.125 35.993,-17.086C36.22,-18.563 37.114,-19.899 36.817,-20.391" style="fill:rgb(89,87,87);fill-rule:nonzero;"/>
        </g>
        <g transform="matrix(1,0,0,1,863.42295,346.97075)">
            <path d="M0,59.174C-0.248,59.174 -4.832,62.767 -5.823,63.262C-9.664,65.368 -13.256,65.616 -17.716,65.616C-26.389,65.616 -27.149,63.139 -27.149,55.953C-27.149,47.405 -26.547,13.127 -26.547,3.587C-26.469,0.708 -26.643,-2.58 -26.337,-5.817C-26.082,-7.471 -25.082,-8.967 -25.414,-9.518C-26.183,-10.797 -29.088,-12.735 -30.695,-13.014C-32.377,-13.307 -35.854,-9.917 -35.865,-9.907L-50.564,-9.907C-50.564,-9.907 -50.766,-10.705 -52.594,-12.408C-55.042,-14.687 -59.929,-15.858 -59.741,-13.635C-59.668,-12.774 -58.888,-10.183 -58.776,-6.766C-58.747,-5.915 -58.681,-3.96 -58.681,-0.243C-58.681,2.606 -58.72,12.949 -58.723,16.046C-58.751,50.651 -60.501,55.064 -65.456,62.19C-67.085,64.878 -72.564,69.818 -72.564,70.066C-72.564,70.314 -72.18,70.653 -71.82,70.562C-68.093,69.61 -62.062,65.636 -57.468,58.949C-54.701,54.922 -53.64,51.946 -52.732,47.923C-50.424,37.697 -50.879,23.079 -50.794,-6.561L-35.751,-6.561C-35.123,-6.561 -34.612,-6.053 -34.609,-5.425L-34.565,3.597C-34.565,11.898 -34.813,49.759 -34.813,58.926C-34.813,64.13 -34.813,67.599 -30.477,70.324C-27.008,72.554 -19.202,75.032 -11.397,75.032C-6.814,75.032 -2.23,73.297 -0.248,65.245C0.124,63.882 0.496,62.023 0.496,60.537C0.496,60.165 0.371,59.174 0,59.174" style="fill:rgb(89,87,87);fill-rule:nonzero;"/>
        </g>
        <g transform="matrix(1,0,0,1,782.24445,386.51915)">
            <path d="M0,-19.765C0,-17.783 -0.124,-9.639 -0.124,-7.409L-15.788,-7.409C-15.666,-14.626 -15.544,-19.853 -15.541,-27.184L-15.535,-27.184C-15.535,-27.275 -15.535,-27.372 -15.534,-27.463L0,-27.463L0,-19.765ZM-15.168,-50.147L-10.524,-50.147C-8,-50.126 -4.848,-50.109 -3.267,-50.147L-2.308,-50.147C-1.115,-50.049 -0.492,-49.622 -0.312,-48.856C-0.247,-48.133 -0.123,-39.259 -0.114,-38.569L-0.115,-30.932L-15.416,-30.932C-15.416,-34.766 -15.169,-44.809 -15.168,-50.147M2.916,-56.054C1.344,-56.327 -1.908,-53.279 -1.908,-53.279L-14.715,-53.279L-14.715,-53.276L-15.058,-53.276C-15.075,-53.35 -15.326,-54.125 -17.084,-55.762C-19.533,-58.042 -23.729,-59.213 -23.541,-56.991C-23.468,-56.129 -22.688,-53.538 -22.575,-50.121C-22.55,-49.346 -22.492,-47.637 -22.482,-44.53L-22.561,-27.184C-22.568,-26.633 -22.576,-26.065 -22.584,-25.481C-23.007,5.364 -23.549,19.203 -29.744,30.353C-30.859,32.335 -32.479,34.94 -34.235,37.153C-34.451,37.425 -34.458,37.66 -34.317,37.863C-34.141,38.116 -33.606,38.005 -33.422,37.92C-32.135,37.324 -28.796,35.205 -25.327,30.652C-20.619,24.334 -16.725,16.47 -15.912,-4.064L-0.124,-4.064C-0.248,11.794 -0.248,13.431 -0.495,22.723C-0.743,28.67 -0.867,33.253 -6.814,33.253C-7.68,33.253 -11.521,33.13 -12.388,33.13C-12.761,33.13 -13.132,33.13 -13.132,33.501C-13.132,34.368 -8.176,39.448 -2.973,39.448C6.938,39.448 6.938,30.404 6.938,24.086L6.938,-25.729C6.938,-34.127 6.937,-38.842 6.838,-45.916C6.845,-47.048 6.873,-48.191 6.982,-49.339C7.219,-50.882 8.152,-52.278 7.843,-52.792C7.125,-53.984 4.415,-55.793 2.916,-56.054" style="fill:rgb(89,87,87);fill-rule:nonzero;"/>
        </g>
        <g transform="matrix(1,0,0,1,1082.63745,418.26525)">
            <path d="M0,-81.238C-4.212,-81.238 -8.998,-80.926 -9.045,-80.923L-10.376,-80.836L-10.463,-75.408C-10.616,-65.867 -10.776,-56 -10.712,-46.463L-10.702,-45.057L-3.536,-44.901C8.654,-44.9 22.851,-50.028 22.851,-64.476C22.851,-72.123 18.885,-81.238 0,-81.238M-10.652,-41.087L-10.652,-39.659C-10.652,-35.548 -10.625,-31.436 -10.567,-27.326C-10.378,-13.655 -10.061,-1.547 -10.058,-1.427L-10.022,-0.072L-8.668,-0.019C-8.62,-0.017 -3.785,0.169 2.553,0.169C13.704,0.169 25.239,-8.229 25.239,-22.282C25.239,-39.023 9.402,-41.17 -4.395,-41.17L-4.404,-41.17L-10.652,-41.087ZM2.91,3.963C0.48,3.963 -1.988,3.893 -4.455,3.822C-5.765,3.785 -7.073,3.747 -8.375,3.721C-9.635,3.694 -10.844,3.683 -11.987,3.683C-16.098,3.683 -19.34,3.824 -21.166,3.927C-20.908,-1.85 -20.07,-22.21 -20.07,-43.317C-20.07,-64.527 -20.807,-80.086 -21.071,-84.995C-19.013,-84.877 -15.268,-84.7 -11.25,-84.7C-9.153,-84.7 -6.751,-84.808 -4.208,-84.923C-1.194,-85.059 1.923,-85.201 5.138,-85.201C14.731,-85.201 26.305,-84.068 30.701,-75.236C31.871,-72.886 32.464,-70.041 32.464,-66.781C32.464,-56.765 26.765,-49.459 16.238,-45.483L11.853,-43.68L16.375,-43.037C28.536,-41.053 35.698,-33.117 35.595,-21.375C35.465,-6.219 22.329,3.963 2.91,3.963" style="fill:rgb(89,87,87);fill-rule:nonzero;"/>
        </g>
        <g transform="matrix(1,0,0,1,1394.23365,333.13925)">
            <path d="M0,89.262C-6.847,89.138 -21.211,88.966 -30.371,88.966C-33.407,88.966 -39.842,89.185 -43.366,89.328C-43.345,89.016 -43.325,88.731 -43.315,88.543C-42.68,77.29 -42.348,60.613 -42.348,49.953L-42.348,36.636C-42.348,25.227 -42.76,10.802 -43.383,0.126C-40.425,0.18 -34.047,0.288 -31.037,0.288C-21.909,0.288 -4.425,0.154 4.4,-0.088C4.356,1.02 4.301,2.468 4.281,3.368C4.261,4.284 4.269,5.512 4.296,6.558C-2.122,5.525 -17.994,4.896 -30.555,4.876L-31.946,4.874L-32.003,6.265C-32.255,12.508 -32.511,24.441 -32.511,35.17L-32.511,39.995L-31.062,39.993C-19.591,39.979 -5.294,39.597 1.816,38.777C1.75,39.969 1.75,41.167 1.75,42.096C1.75,42.996 1.75,44.247 1.811,45.4C-4.366,44.643 -19.29,44.472 -31.064,44.466L-32.511,44.466L-32.511,50.088C-32.511,61.035 -32.27,76.483 -32.006,82.498L-31.945,83.884L-30.559,83.882C-19.279,83.864 -4.226,83.298 5.027,81.777C4.947,83.528 4.947,84.992 4.947,85.682C4.947,86.38 4.947,87.717 5.03,89.35L0,89.262Z" style="fill:rgb(89,87,87);fill-rule:nonzero;"/>
        </g>
        <g transform="matrix(1,0,0,1,1206.57845,333.13185)">
            <path d="M0,89.055C-8.65,88.626 -16.417,88.418 -23.732,88.418C-31.019,88.418 -38.522,88.616 -47.3,89.042C-46.823,78.718 -46.293,67.085 -46.293,55.809L-46.293,33.381C-46.293,22.075 -46.828,10.37 -47.306,0L-46.572,0.033C-44.073,0.142 -43.684,0.159 -41.758,0.182L-40.481,0.193C-39.32,0.193 -38.575,0.156 -36.447,0.05L-35.622,0.009C-36.124,10.905 -36.636,22.149 -36.636,33.381C-36.636,50.58 -36.473,63.993 -36.355,73.788L-36.236,83.511L-34.806,83.511C-23.559,83.511 -12.932,83.511 0.017,81.854C-0.078,83.385 -0.126,84.532 -0.126,85.679C-0.126,86.893 -0.07,87.878 0,89.055" style="fill:rgb(89,87,87);fill-rule:nonzero;"/>
        </g>
        <g transform="matrix(1,0,0,1,1276.06155,333.08155)">
            <path d="M0,90.812C-24.357,90.81 -35.331,80.796 -36.693,57.33C-37.028,51.567 -37.1,39.489 -37.1,36.809C-37.1,25.987 -37.203,11.548 -37.49,3.479L-37.613,0.048L-36.779,0.087C-34.597,0.192 -34.08,0.217 -31.863,0.217C-29.658,0.217 -29.003,0.178 -27.056,0.062L-25.971,0C-26.554,8.208 -27.021,27.026 -26.758,46.474C-26.722,49.226 -26.531,52.209 -26.364,54.84C-26.3,55.854 -26.238,56.818 -26.188,57.703C-25.246,74.851 -17.387,84.487 -3.46,85.569C-2.493,85.645 -0.445,85.725 0.52,85.725C1.265,85.725 3.516,85.689 4.409,85.601C20.129,84.069 28.709,70.63 28.571,47.759L28.551,44.535C28.443,26.537 28.334,7.937 27.785,0.035C29.987,0.202 30.359,0.217 31.986,0.217C33.824,0.217 34.208,0.202 36.071,0.079L35.95,3.479C35.724,9.798 35.32,25.647 34.891,42.426L34.65,51.82C33.985,77.833 22.649,90.588 0,90.812" style="fill:rgb(89,87,87);fill-rule:nonzero;"/>
        </g>
    </g>
</svg>
